<svg width="49" height="48" fill="none" xmlns="http://www.w3.org/2000/svg"><circle cx="24.185" cy="24.019" r="22.817" fill="#67C0FF"/><circle cx="24.008" cy="24" r="24" fill="#fff"/><path d="M30.475 8H17.54c-5.257 0-9.533 4.277-9.533 9.533v12.934c0 5.257 4.276 9.533 9.533 9.533h12.934c5.256 0 9.533-4.276 9.533-9.533V17.533C40.008 12.276 35.73 8 30.475 8zm6.314 22.467a6.314 6.314 0 01-6.314 6.314H17.54a6.314 6.314 0 01-6.314-6.314V17.533a6.314 6.314 0 016.314-6.314h12.934a6.314 6.314 0 016.314 6.314v12.934z" fill="url(#paint0_linear_2_1703)"/><path d="M24.008 15.724c-4.564 0-8.277 3.712-8.277 8.276 0 4.563 3.713 8.276 8.277 8.276 4.563 0 8.276-3.713 8.276-8.276 0-4.564-3.713-8.276-8.276-8.276zm0 13.333a5.057 5.057 0 110-10.114 5.057 5.057 0 010 10.114z" fill="url(#paint1_linear_2_1703)"/><path d="M32.3 17.77a1.983 1.983 0 100-3.967 1.983 1.983 0 000 3.966z" fill="url(#paint2_linear_2_1703)"/><defs><linearGradient id="paint0_linear_2_1703" x1="24.008" y1="39.907" x2="24.008" y2="8.249" gradientUnits="userSpaceOnUse"><stop stop-color="#E09B3D"/><stop offset=".3" stop-color="#C74C4D"/><stop offset=".6" stop-color="#C21975"/><stop offset="1" stop-color="#7024C4"/></linearGradient><linearGradient id="paint1_linear_2_1703" x1="24.008" y1="39.907" x2="24.008" y2="8.249" gradientUnits="userSpaceOnUse"><stop stop-color="#E09B3D"/><stop offset=".3" stop-color="#C74C4D"/><stop offset=".6" stop-color="#C21975"/><stop offset="1" stop-color="#7024C4"/></linearGradient><linearGradient id="paint2_linear_2_1703" x1="32.3" y1="39.907" x2="32.3" y2="8.249" gradientUnits="userSpaceOnUse"><stop stop-color="#E09B3D"/><stop offset=".3" stop-color="#C74C4D"/><stop offset=".6" stop-color="#C21975"/><stop offset="1" stop-color="#7024C4"/></linearGradient></defs></svg>