<svg width="49" height="48" fill="none" xmlns="http://www.w3.org/2000/svg"><circle cx="23.185" cy="24.019" r="22.817" fill="#67C0FF"/><path d="M24.008 48c13.255 0 24-10.745 24-24s-10.745-24-24-24-24 10.745-24 24 10.745 24 24 24z" fill="#25D366"/><path fill-rule="evenodd" clip-rule="evenodd" d="M24.799 37.353h-.006a14.25 14.25 0 01-6.82-1.738L10.408 37.6l2.024-7.395a14.245 14.245 0 01-1.905-7.135C10.531 15.202 16.933 8.8 24.8 8.8c3.817.002 7.4 1.488 10.095 4.185a14.185 14.185 0 014.176 10.097c-.003 7.866-6.403 14.267-14.271 14.27zm-6.475-4.321l.433.257a11.844 11.844 0 006.037 1.653h.005c6.538 0 11.859-5.32 11.861-11.861a11.79 11.79 0 00-3.47-8.392 11.78 11.78 0 00-8.386-3.479c-6.543 0-11.864 5.321-11.867 11.861 0 2.241.626 4.424 1.814 6.313l.282.448-1.199 4.378 4.49-1.178zM31.5 26.154c.249.12.417.201.489.321.089.149.089.863-.208 1.696s-1.722 1.593-2.407 1.695c-.615.092-1.392.13-2.246-.14a20.465 20.465 0 01-2.033-.752c-3.343-1.444-5.602-4.684-6.03-5.296a1.643 1.643 0 00-.062-.088L19 23.586c-.188-.252-1.453-1.94-1.453-3.685 0-1.643.807-2.504 1.179-2.9l.07-.075a1.31 1.31 0 01.95-.446 14.808 14.808 0 01.764.013c.207 0 .466-.002.722.612l.394.956c.307.747.646 1.572.705 1.691.09.179.149.387.03.625l-.05.102c-.09.182-.155.316-.306.493-.06.07-.122.144-.183.22a5.91 5.91 0 01-.352.405c-.179.177-.365.37-.157.727s.924 1.525 1.984 2.47a9.188 9.188 0 002.632 1.664c.098.043.178.077.236.106.356.179.564.15.772-.089.208-.238.892-1.041 1.13-1.398.237-.357.475-.297.802-.179.326.12 2.08.982 2.436 1.16l.195.096z" fill="#FDFDFD"/></svg>