<svg version="1.0" xmlns="http://www.w3.org/2000/svg" width="228" height="228" viewBox="0 0 171 171"><path d="M84.6 2c-.3.8-1.5 4.1-2.6 7.4-1.1 3.2-3.3 8-5 10.7-1.6 2.7-3 5.1-3 5.4 0 1.5-17.8 26-26.1 36-3.7 4.4-9 12.5-11.9 18-2.9 5.5-5.5 10.4-6 11-1.5 2-3.1 11.3-3.4 19.5-.3 9.6 2 21 5.5 26.8 9.1 15.3 10.4 16.7 20.8 23.1 13.9 8.6 17.9 9.9 32.2 10 13.5.2 16.9-.6 28.3-6.3 8.8-4.4 13.5-8.5 19.3-17.2 8.3-12.5 11-20.8 10.8-33.9-.2-11.6-.7-14.2-4.8-25-3.5-9.2-7.7-16.2-15.6-25.9-8.8-10.8-23.7-31.5-27.7-38.3-1.9-3.5-5.1-10-6.9-14.5-2-4.8-3.6-7.6-3.9-6.8z"/></svg>