<svg width="20" height="35" fill="none" xmlns="http://www.w3.org/2000/svg"><path d="M.013 31.582c0-.17.34-.21.34-.38v-2.14c0-.224-.34-.355-.34-.578v-1.13c0-.159.34-.173.34-.33v-2.41c0-.181-.32-.258-.32-.439 0-.05-.02-.1-.02-.15v-1.068c0-.165.34-.192.34-.357v-2.249c0-.181-.32-.258-.32-.439 0-.05-.02-.1-.02-.15v-1.068c0-.165.34-.193.34-.357v-2.462c0-.181-.32-.258-.32-.438 0-.051-.02-.1-.02-.151v-1.068c0-.165.34-.193.34-.357v-2.423c0-.082-.34-.164-.34-.247v-1.186c0-.095.34-.137.34-.284a.84.84 0 01.163-.518c.107-.146.254-.256.397-.372 1.76-1.415 4.619-2.536 6.077-3.66.362-.278.55-.79.55-1.254V2.903c0-.042-.04-.072-.076-.103-.032-.026-.061-.054-.061-.09v-.39c0-.025.01-.048.024-.07.04-.06.112-.11.112-.18V.96C7.03.906 7.072.533 7.072.533V.349c0-.02.006-.04.015-.059.002-.005.003-.01.006-.014a.192.192 0 01.029-.04.313.313 0 01.022-.023l.01-.008a.478.478 0 01.035-.028h.002l.045-.029.012-.007.041-.02.014-.007.059-.026C7.517.028 8.428 0 8.595 0h2.203c.167 0 1.078.027 1.233.088a1.442 1.442 0 01.072.032l.042.021.012.007.045.028h.002l.035.029.01.008a.607.607 0 01.022.024l.008.008c.008.01.015.02.02.03v.001l.007.014a.15.15 0 01.015.06v.182s.043.376-.467.428v1.11c0 .069.073.12.111.18a.125.125 0 01.024.07v.39c0 .036-.029.064-.06.09-.037.032-.076.061-.076.103v1.015c0 .463.2.96.55 1.254 1.298 1.091 4.316 2.245 6.076 3.66.143.114.29.225.397.371a.835.835 0 01.163.518c0 .148.341.19.341.284v1.187c0 .082-.341.164-.341.247v2.422c0 .165.341.193.341.357v1.218c0 .185-.341.253-.341.438v2.462c0 .165.341.192.341.357v1.218c0 .186-.341.253-.341.439v2.249c0 .165.341.193.341.357v1.219c0 .185-.341.253-.341.438v2.409c0 .159.341.173.341.33v1.131c0 .223-.341.354-.341.578v2.14c0 .17.341.21.341.38 0 .068.02.633.01 1.092-.012.578-.088 1.178-.591 1.48-.252.15-.527.265-.823.283-.156.009-.542.008-.697.008H2.114c-.155 0-.541.001-.697-.008-.296-.018-.571-.133-.823-.283-.503-.302-.58-.902-.591-1.48-.01-.458.01-1.022.01-1.091z" fill="#50BEFF"/></svg>