<svg width="25" height="19" fill="none" xmlns="http://www.w3.org/2000/svg"><path fill-rule="evenodd" clip-rule="evenodd" d="M.427 6.697h24.262c-.004-3.004-.07-4.569-1.066-5.565C22.557.066 20.842.066 17.41.066H7.705c-3.43 0-5.146 0-6.212 1.066C.496 2.128.43 3.693.427 6.697zm24.262 1.294H.427v2.993c0 3.431 0 5.147 1.066 6.213 1.066 1.066 2.781 1.066 6.212 1.066h9.705c3.432 0 5.147 0 6.213-1.066 1.066-1.066 1.066-2.782 1.066-6.213V7.99zM6.492 12.763a.647.647 0 000 1.294h.012a.647.647 0 000-1.294h-.012z" fill="#50BEFF"/></svg>