<svg width="1431" height="644" fill="none" xmlns="http://www.w3.org/2000/svg"><path d="M-32 644l40.639-1.765c40.639-1.842 121.917-5.372 203.194-9.363 81.278-3.991 162.556-8.288 243.834-23.791 81.277-15.502 162.555-42.055 243.833-47.197 81.278-5.142 162.556 11.281 243.833 12.125 81.277.921 162.557-13.66 243.837-11.742 81.27 1.919 162.55 20.338 203.19 29.547l40.64 9.209V479H-32v165z" fill="url(#paint0_linear_444_14)"/><path d="M-12 117.277l26.776 1.369c26.615 1.826 80.166 4.565 133.557-21.91 53.391-26.473 106.943-83.073 160.334-94.484C362.058-9.159 415.609 24.618 469 62.503c53.391 37.885 106.942 80.792 160.333 83.074 53.391 2.282 106.943-36.06 160.334-57.056C843.058 67.068 896.609 62.503 950 73c53.39 10.955 106.94 36.516 160.33 55.687 53.39 19.171 106.95 31.039 160.34 14.607 53.39-16.889 106.94-62.534 133.55-85.356L1431 35.116V487H-12V117.277z" fill="url(#paint1_linear_444_14)"/><defs><linearGradient id="paint0_linear_444_14" x1="1431" y1="479" x2="-23.691" y2="600.346" gradientUnits="userSpaceOnUse"><stop stop-color="#69C4F7"/><stop offset="1" stop-color="#2376B1"/></linearGradient><linearGradient id="paint1_linear_444_14" x1="1465.51" y1="487" x2="187.342" y2="-198.389" gradientUnits="userSpaceOnUse"><stop stop-color="#69C4F7"/><stop offset="1" stop-color="#2376B1"/></linearGradient></defs></svg>