<svg width="46" height="46" fill="none" xmlns="http://www.w3.org/2000/svg"><circle cx="23.177" cy="23.07" r="22.817" fill="#67C0FF"/><path d="M18.534 10.66h10.088a6.97 6.97 0 016.965 6.966v10.087a6.965 6.965 0 01-6.966 6.965H18.535a6.97 6.97 0 01-6.965-6.965V17.626a6.965 6.965 0 016.965-6.965zm-.24 2.402a4.323 4.323 0 00-4.323 4.324v10.567a4.32 4.32 0 004.323 4.324h10.568a4.323 4.323 0 004.323-4.324V17.386a4.32 4.32 0 00-4.323-4.324H18.294zm11.588 1.802a1.501 1.501 0 110 3.003 1.501 1.501 0 010-3.003zm-6.304 1.801a6.004 6.004 0 110 12.008 6.004 6.004 0 010-12.008zm0 2.402a3.603 3.603 0 100 7.206 3.603 3.603 0 000-7.206z" fill="#FEFEFE"/></svg>