<svg width="28" height="29" fill="none" xmlns="http://www.w3.org/2000/svg"><path d="M9.1 2.402h9.8c3.733 0 6.767 3.122 6.767 6.965v10.087a7.07 7.07 0 01-1.982 4.926 6.67 6.67 0 01-4.785 2.04H9.1c-3.733 0-6.767-3.123-6.767-6.966V9.367a7.07 7.07 0 011.982-4.925A6.67 6.67 0 019.1 2.402zm-.233 2.402a4.14 4.14 0 00-2.97 1.266 4.388 4.388 0 00-1.23 3.057v10.568c0 2.39 1.878 4.323 4.2 4.323h10.266a4.14 4.14 0 002.97-1.266 4.388 4.388 0 001.23-3.057V9.127c0-2.39-1.878-4.323-4.2-4.323H8.867zm11.258 1.8c.387 0 .758.16 1.031.44.274.282.427.664.427 1.062s-.153.78-.427 1.061c-.273.282-.644.44-1.031.44-.387 0-.758-.158-1.031-.44a1.524 1.524 0 01-.427-1.061c0-.398.153-.78.427-1.061.273-.282.644-.44 1.031-.44zM14 8.407a5.75 5.75 0 014.125 1.759 6.095 6.095 0 011.708 4.246c0 1.592-.614 3.12-1.708 4.246A5.75 5.75 0 0114 20.415a5.75 5.75 0 01-4.125-1.758 6.095 6.095 0 01-1.708-4.246c0-1.593.614-3.12 1.708-4.246A5.75 5.75 0 0114 8.406zm0 2.402a3.45 3.45 0 00-2.475 1.055 3.657 3.657 0 00-1.025 2.548c0 .955.369 1.872 1.025 2.547A3.45 3.45 0 0014 18.013a3.45 3.45 0 002.475-1.055 3.657 3.657 0 001.025-2.547 3.66 3.66 0 00-1.025-2.548A3.45 3.45 0 0014 10.808z" fill="#fff"/></svg>