<svg width="46" height="46" fill="none" xmlns="http://www.w3.org/2000/svg"><circle cx="22.817" cy="22.817" r="22.817" fill="#67C0FF"/><g clip-path="url(#clip0_2_1648)" fill="#fff"><path d="M23 6.333A11.658 11.658 0 0011.333 18C11.333 26.75 23 39.667 23 39.667S34.667 26.75 34.667 18c0-6.45-5.217-11.667-11.667-11.667zM14.667 18c0-4.6 3.733-8.333 8.333-8.333S31.333 13.4 31.333 18c0 4.8-4.8 11.983-8.333 16.467-3.467-4.45-8.333-11.717-8.333-16.467z"/><path d="M23 22.167a4.167 4.167 0 100-8.334 4.167 4.167 0 000 8.334z"/></g><defs><clipPath id="clip0_2_1648"><path fill="#fff" transform="translate(3 3)" d="M0 0h40v40H0z"/></clipPath></defs></svg>