<svg width="28" height="28" fill="none" xmlns="http://www.w3.org/2000/svg"><path d="M18.368 15.785a6.442 6.442 0 00-1.141-.976 9.185 9.185 0 003.335-5.217 1.168 1.168 0 10-2.274-.518 6.838 6.838 0 01-3.524 4.554V9.336a1.117 1.117 0 00-.051-.252 1.2 1.2 0 00-.041-.2 1.158 1.158 0 00-.195-.291c-.02-.024-.031-.056-.053-.08a1.17 1.17 0 00-.287-.195c-.03-.016-.053-.043-.085-.056a1.19 1.19 0 00-.275-.057 1.102 1.102 0 00-.177-.036l-.763-.002h-.004a1.16 1.16 0 00-.408 2.25v5.705a13.191 13.191 0 01-3.512-6.981 1.167 1.167 0 10-2.3.39 15.556 15.556 0 006.3 10.084.99.99 0 00.149.075c.04.023.083.045.126.063.13.052.268.08.408.083.172-.002.341-.043.495-.12.012-.005.025-.002.036-.008a1.16 1.16 0 00.28-.205c.018-.016.028-.035.044-.052a1.153 1.153 0 00.23-.378c.052-.129.08-.266.082-.404v-2.48a4.143 4.143 0 011.885 1.172l1.922 2.097a1.167 1.167 0 001.72-1.578l-1.922-2.095zm-.783-14.618h-7.159c-7.183 0-9.26 2.074-9.26 9.248v7.159c0 7.183 2.075 9.26 9.249 9.26h7.159c7.183 0 9.26-2.075 9.26-9.249v-7.159c0-7.183-2.075-9.26-9.249-9.26zM24.5 17.585c0 5.88-1.036 6.915-6.928 6.915h-7.156c-5.881 0-6.916-1.036-6.916-6.928v-7.156C3.5 4.535 4.536 3.5 10.428 3.5h7.157c5.88 0 6.915 1.036 6.915 6.928v7.157z" fill="#fff"/></svg>