<svg width="46" height="46" fill="none" xmlns="http://www.w3.org/2000/svg"><circle cx="23.177" cy="23.019" r="22.817" fill="#67C0FF"/><path d="M28.074 24.457a6.624 6.624 0 00-1.175-1.005 9.455 9.455 0 003.434-5.37 1.2 1.2 0 10-2.342-.532 7.038 7.038 0 01-3.627 4.687v-4.418a1.148 1.148 0 00-.053-.26 1.227 1.227 0 00-.042-.205 1.188 1.188 0 00-.2-.3c-.022-.024-.033-.058-.055-.082a1.204 1.204 0 00-.296-.2c-.031-.017-.054-.045-.086-.058a1.224 1.224 0 00-.284-.06 1.127 1.127 0 00-.182-.036l-.786-.003h-.003a1.194 1.194 0 00-.42 2.317v5.872a13.578 13.578 0 01-3.615-7.186 1.201 1.201 0 00-2.368.401 16.013 16.013 0 006.484 10.38c.05.03.101.056.154.078a1.193 1.193 0 00.55.15c.177-.003.35-.044.51-.123.011-.006.025-.002.037-.008.106-.056.203-.127.288-.212.018-.017.029-.036.045-.054a1.185 1.185 0 00.237-.389c.053-.132.081-.273.084-.415v-2.553a4.265 4.265 0 011.94 1.206l1.979 2.159a1.201 1.201 0 001.77-1.624l-1.978-2.157zM27.268 9.41h-7.369c-7.394 0-9.531 2.135-9.531 9.52v7.368c0 7.394 2.135 9.532 9.52 9.532h7.368c7.394 0 9.532-2.136 9.532-9.52v-7.369c0-7.393-2.136-9.531-9.52-9.531zm7.118 16.9c0 6.053-1.067 7.118-7.131 7.118h-7.366c-6.054 0-7.12-1.067-7.12-7.131V18.93c0-6.054 1.067-7.12 7.132-7.12h7.367c6.053 0 7.118 1.067 7.118 7.132v7.367z" fill="#FEFEFE"/></svg>