<svg width="28" height="28" fill="none" xmlns="http://www.w3.org/2000/svg"><path d="M27.721 8.4s-.273-1.93-1.116-2.778C25.54 4.506 24.348 4.501 23.8 4.435c-3.916-.284-9.795-.284-9.795-.284h-.01s-5.88 0-9.795.284c-.547.066-1.74.071-2.805 1.187C.552 6.47.285 8.4.285 8.4S0 10.67 0 12.934v2.122c0 2.264.279 4.533.279 4.533s.273 1.93 1.11 2.778c1.066 1.116 2.466 1.078 3.09 1.198 2.242.213 9.521.279 9.521.279s5.884-.011 9.8-.29c.547-.066 1.74-.071 2.805-1.187.843-.847 1.116-2.778 1.116-2.778S28 17.325 28 15.056v-2.122c0-2.264-.279-4.534-.279-4.534zm-16.614 9.231v-7.87l7.563 3.95-7.563 3.92z" fill="#fff"/></svg>