<svg width="46" height="46" fill="none" xmlns="http://www.w3.org/2000/svg"><circle cx="23.177" cy="23.019" r="22.817" fill="#67C0FF"/><g clip-path="url(#clip0_375_21)"><path d="M36.713 17.4s-.273-1.93-1.115-2.778c-1.067-1.116-2.259-1.121-2.806-1.187-3.915-.284-9.794-.284-9.794-.284h-.011s-5.88 0-9.795.284c-.547.066-1.739.071-2.805 1.187-.842.848-1.11 2.778-1.11 2.778s-.285 2.27-.285 4.534v2.122c0 2.264.28 4.533.28 4.533s.273 1.93 1.11 2.778c1.066 1.116 2.466 1.078 3.09 1.198 2.241.213 9.52.279 9.52.279s5.885-.011 9.8-.29c.547-.066 1.74-.071 2.806-1.187.842-.847 1.115-2.778 1.115-2.778s.28-2.264.28-4.533v-2.122c0-2.264-.28-4.534-.28-4.534zM20.1 26.631v-7.87l7.564 3.95-7.564 3.92z" fill="#fff"/></g><defs><clipPath id="clip0_375_21"><path fill="#fff" transform="translate(8.992 9)" d="M0 0h28v28H0z"/></clipPath></defs></svg>