<svg width="46" height="46" fill="none" xmlns="http://www.w3.org/2000/svg"><circle cx="22.817" cy="22.817" r="22.817" fill="#67C0FF"/><g clip-path="url(#clip0_2_1650)"><path d="M32.781 12.16a14.315 14.315 0 00-10.223-4.243c-7.962 0-14.452 6.49-14.452 14.452 0 2.552.671 5.031 1.925 7.219L7.99 37.083l7.656-2.012a14.456 14.456 0 006.912 1.765c7.963 0 14.452-6.49 14.452-14.453a14.36 14.36 0 00-4.229-10.222zM22.558 34.386c-2.158 0-4.273-.584-6.125-1.678l-.437-.262-4.55 1.196 1.21-4.434-.291-.452a12.051 12.051 0 01-1.838-6.387c0-6.621 5.396-12.017 12.017-12.017a11.89 11.89 0 018.487 3.53 11.934 11.934 0 013.515 8.501c.029 6.621-5.367 12.003-11.988 12.003zm6.592-8.984c-.365-.175-2.144-1.05-2.465-1.181-.335-.117-.568-.175-.816.175-.248.364-.934 1.181-1.138 1.415-.204.247-.423.277-.787.087-.365-.175-1.531-.569-2.902-1.794-1.08-.962-1.794-2.143-2.013-2.508-.204-.365-.029-.554.16-.744.161-.16.365-.423.54-.627.175-.204.248-.365.365-.598.116-.248.058-.452-.03-.627-.087-.175-.816-1.954-1.108-2.683-.291-.7-.598-.613-.816-.627h-.7c-.248 0-.628.087-.963.452-.32.364-1.254 1.24-1.254 3.018 0 1.78 1.298 3.5 1.473 3.734.175.248 2.552 3.894 6.169 5.454.86.38 1.53.598 2.056.758.86.277 1.648.234 2.275.146.7-.102 2.144-.875 2.435-1.72.306-.846.306-1.561.204-1.721-.102-.16-.32-.234-.685-.409z" fill="#fff"/></g><defs><clipPath id="clip0_2_1650"><path fill="#fff" transform="translate(5 5)" d="M0 0h35v35H0z"/></clipPath></defs></svg>